<svg width="228" height="148" viewBox="0 0 228 148" fill="none" xmlns="http://www.w3.org/2000/svg">
<g id="Component 4">
<g id="Group 40">
<path id="Rectangle 49" d="M0 74C0 53.5655 16.5655 37 37 37H186V111H37C16.5655 111 0 94.4345 0 74Z" fill="#FCE1C8"/>
<path id="Subtract" d="M228 148C228 127.565 211.435 111 191 111H186V37H191C211.435 37 228 20.4345 228 0V148Z" fill="#FCE1C8"/>
</g>
<g id="Group 45">
<path id="Vector 8" d="M20 74L29.2929 64.7071C29.6834 64.3166 30.3166 64.3166 30.7071 64.7071L40 74" stroke="#F68723" stroke-width="1.5" stroke-linecap="round"/>
<path id="Vector 9" d="M22.7783 71.2223V83.0001C22.7783 83.5524 23.226 84.0001 23.7783 84.0001H36.2228C36.7751 84.0001 37.2228 83.5524 37.2228 83.0001V71.2223" stroke="#F68723" stroke-width="1.5" stroke-linecap="round"/>
</g>
<path id="Dashboard" d="M62.964 83V64.8H70.374C72.3153 64.8 74.014 65.19 75.47 65.97C76.9433 66.7327 78.0873 67.7987 78.902 69.168C79.7167 70.5373 80.124 72.1147 80.124 73.9C80.124 75.6853 79.7167 77.2627 78.902 78.632C78.0873 80.0013 76.9433 81.076 75.47 81.856C74.014 82.6187 72.3153 83 70.374 83H62.964ZM64.888 81.336H70.27C71.882 81.336 73.2773 81.024 74.456 80.4C75.652 79.7587 76.5793 78.8833 77.238 77.774C77.8967 76.6473 78.226 75.356 78.226 73.9C78.226 72.4267 77.8967 71.1353 77.238 70.026C76.5793 68.9167 75.652 68.05 74.456 67.426C73.2773 66.7847 71.882 66.464 70.27 66.464H64.888V81.336ZM91.0485 83V79.984L90.9705 79.49V74.446C90.9705 73.2847 90.6411 72.392 89.9825 71.768C89.3411 71.144 88.3791 70.832 87.0965 70.832C86.2125 70.832 85.3718 70.9793 84.5745 71.274C83.7771 71.5687 83.1011 71.9587 82.5465 72.444L81.7145 71.066C82.4078 70.4767 83.2398 70.026 84.2105 69.714C85.1811 69.3847 86.2038 69.22 87.2785 69.22C89.0465 69.22 90.4071 69.662 91.3605 70.546C92.3311 71.4127 92.8165 72.7387 92.8165 74.524V83H91.0485ZM86.3425 83.13C85.3198 83.13 84.4271 82.9653 83.6645 82.636C82.9191 82.2893 82.3471 81.8213 81.9485 81.232C81.5498 80.6253 81.3505 79.932 81.3505 79.152C81.3505 78.4413 81.5151 77.8 81.8445 77.228C82.1911 76.6387 82.7458 76.1707 83.5085 75.824C84.2885 75.46 85.3285 75.278 86.6285 75.278H91.3345V76.656H86.6805C85.3631 76.656 84.4445 76.89 83.9245 77.358C83.4218 77.826 83.1705 78.4067 83.1705 79.1C83.1705 79.88 83.4738 80.504 84.0805 80.972C84.6871 81.44 85.5365 81.674 86.6285 81.674C87.6685 81.674 88.5611 81.44 89.3065 80.972C90.0691 80.4867 90.6238 79.7933 90.9705 78.892L91.3865 80.166C91.0398 81.0673 90.4331 81.7867 89.5665 82.324C88.7171 82.8613 87.6425 83.13 86.3425 83.13ZM99.9364 83.13C98.8097 83.13 97.7437 82.974 96.7384 82.662C95.7331 82.3327 94.9444 81.9253 94.3724 81.44L95.2044 79.984C95.7591 80.4 96.4697 80.764 97.3364 81.076C98.2031 81.3707 99.1131 81.518 100.066 81.518C101.366 81.518 102.302 81.3187 102.874 80.92C103.446 80.504 103.732 79.958 103.732 79.282C103.732 78.7793 103.568 78.3893 103.238 78.112C102.926 77.8173 102.51 77.6007 101.99 77.462C101.47 77.306 100.89 77.176 100.248 77.072C99.6071 76.968 98.9657 76.8467 98.3244 76.708C97.7004 76.5693 97.1284 76.37 96.6084 76.11C96.0884 75.8327 95.6637 75.46 95.3344 74.992C95.0224 74.524 94.8664 73.9 94.8664 73.12C94.8664 72.3747 95.0744 71.7073 95.4904 71.118C95.9064 70.5287 96.5131 70.0693 97.3104 69.74C98.1251 69.3933 99.1131 69.22 100.274 69.22C101.158 69.22 102.042 69.3413 102.926 69.584C103.81 69.8093 104.538 70.1127 105.11 70.494L104.304 71.976C103.698 71.56 103.048 71.2653 102.354 71.092C101.661 70.9013 100.968 70.806 100.274 70.806C99.0437 70.806 98.1337 71.0227 97.5444 71.456C96.9724 71.872 96.6864 72.4093 96.6864 73.068C96.6864 73.588 96.8424 73.9953 97.1544 74.29C97.4837 74.5847 97.9084 74.8187 98.4284 74.992C98.9657 75.148 99.5464 75.278 100.17 75.382C100.812 75.486 101.444 75.616 102.068 75.772C102.71 75.9107 103.29 76.11 103.81 76.37C104.348 76.6127 104.772 76.968 105.084 77.436C105.414 77.8867 105.578 78.4847 105.578 79.23C105.578 80.0273 105.353 80.7207 104.902 81.31C104.469 81.882 103.828 82.3327 102.978 82.662C102.146 82.974 101.132 83.13 99.9364 83.13ZM107.406 83V63.708H109.252V73.094L108.888 72.392C109.321 71.404 110.014 70.6327 110.968 70.078C111.921 69.506 113.056 69.22 114.374 69.22C115.483 69.22 116.454 69.4367 117.286 69.87C118.135 70.286 118.794 70.9273 119.262 71.794C119.747 72.6607 119.99 73.7527 119.99 75.07V83H118.144V75.252C118.144 73.8133 117.78 72.73 117.052 72.002C116.341 71.2567 115.336 70.884 114.036 70.884C113.065 70.884 112.216 71.0833 111.488 71.482C110.777 71.8633 110.222 72.4267 109.824 73.172C109.442 73.9 109.252 74.784 109.252 75.824V83H107.406ZM130.462 83.13C129.266 83.13 128.191 82.8613 127.238 82.324C126.285 81.7693 125.531 80.972 124.976 79.932C124.421 78.892 124.144 77.6353 124.144 76.162C124.144 74.6713 124.421 73.4147 124.976 72.392C125.548 71.352 126.311 70.5633 127.264 70.026C128.217 69.4887 129.283 69.22 130.462 69.22C131.762 69.22 132.923 69.5147 133.946 70.104C134.986 70.676 135.801 71.482 136.39 72.522C136.979 73.562 137.274 74.7753 137.274 76.162C137.274 77.5313 136.979 78.7447 136.39 79.802C135.801 80.842 134.986 81.6567 133.946 82.246C132.923 82.8353 131.762 83.13 130.462 83.13ZM123.416 83V63.708H125.262V73.38L125.002 76.136L125.184 78.892V83H123.416ZM130.332 81.492C131.303 81.492 132.169 81.2753 132.932 80.842C133.695 80.3913 134.301 79.7673 134.752 78.97C135.203 78.1553 135.428 77.2193 135.428 76.162C135.428 75.0873 135.203 74.1513 134.752 73.354C134.301 72.5567 133.695 71.9413 132.932 71.508C132.169 71.0573 131.303 70.832 130.332 70.832C129.361 70.832 128.486 71.0573 127.706 71.508C126.943 71.9413 126.337 72.5567 125.886 73.354C125.453 74.1513 125.236 75.0873 125.236 76.162C125.236 77.2193 125.453 78.1553 125.886 78.97C126.337 79.7673 126.943 80.3913 127.706 80.842C128.486 81.2753 129.361 81.492 130.332 81.492ZM145.041 83.13C143.724 83.13 142.536 82.8353 141.479 82.246C140.439 81.6393 139.616 80.816 139.009 79.776C138.402 78.7187 138.099 77.514 138.099 76.162C138.099 74.7927 138.402 73.588 139.009 72.548C139.616 71.508 140.439 70.6933 141.479 70.104C142.519 69.5147 143.706 69.22 145.041 69.22C146.393 69.22 147.589 69.5147 148.629 70.104C149.686 70.6933 150.51 71.508 151.099 72.548C151.706 73.588 152.009 74.7927 152.009 76.162C152.009 77.514 151.706 78.7187 151.099 79.776C150.51 80.816 149.686 81.6393 148.629 82.246C147.572 82.8353 146.376 83.13 145.041 83.13ZM145.041 81.492C146.029 81.492 146.904 81.2753 147.667 80.842C148.43 80.3913 149.028 79.7673 149.461 78.97C149.912 78.1553 150.137 77.2193 150.137 76.162C150.137 75.0873 149.912 74.1513 149.461 73.354C149.028 72.5567 148.43 71.9413 147.667 71.508C146.904 71.0573 146.038 70.832 145.067 70.832C144.096 70.832 143.23 71.0573 142.467 71.508C141.704 71.9413 141.098 72.5567 140.647 73.354C140.196 74.1513 139.971 75.0873 139.971 76.162C139.971 77.2193 140.196 78.1553 140.647 78.97C141.098 79.7673 141.704 80.3913 142.467 80.842C143.23 81.2753 144.088 81.492 145.041 81.492ZM162.696 83V79.984L162.618 79.49V74.446C162.618 73.2847 162.288 72.392 161.63 71.768C160.988 71.144 160.026 70.832 158.744 70.832C157.86 70.832 157.019 70.9793 156.222 71.274C155.424 71.5687 154.748 71.9587 154.194 72.444L153.362 71.066C154.055 70.4767 154.887 70.026 155.858 69.714C156.828 69.3847 157.851 69.22 158.926 69.22C160.694 69.22 162.054 69.662 163.008 70.546C163.978 71.4127 164.464 72.7387 164.464 74.524V83H162.696ZM157.99 83.13C156.967 83.13 156.074 82.9653 155.312 82.636C154.566 82.2893 153.994 81.8213 153.596 81.232C153.197 80.6253 152.998 79.932 152.998 79.152C152.998 78.4413 153.162 77.8 153.492 77.228C153.838 76.6387 154.393 76.1707 155.156 75.824C155.936 75.46 156.976 75.278 158.276 75.278H162.982V76.656H158.328C157.01 76.656 156.092 76.89 155.572 77.358C155.069 77.826 154.818 78.4067 154.818 79.1C154.818 79.88 155.121 80.504 155.728 80.972C156.334 81.44 157.184 81.674 158.276 81.674C159.316 81.674 160.208 81.44 160.954 80.972C161.716 80.4867 162.271 79.7933 162.618 78.892L163.034 80.166C162.687 81.0673 162.08 81.7867 161.214 82.324C160.364 82.8613 159.29 83.13 157.99 83.13ZM167.918 83V69.35H169.686V73.068L169.504 72.418C169.885 71.378 170.526 70.5893 171.428 70.052C172.329 69.4973 173.447 69.22 174.782 69.22V71.014C174.712 71.014 174.643 71.014 174.574 71.014C174.504 70.9967 174.435 70.988 174.366 70.988C172.927 70.988 171.8 71.43 170.986 72.314C170.171 73.1807 169.764 74.42 169.764 76.032V83H167.918ZM181.897 83.13C180.597 83.13 179.427 82.8353 178.387 82.246C177.364 81.6567 176.558 80.842 175.969 79.802C175.38 78.7447 175.085 77.5313 175.085 76.162C175.085 74.7753 175.38 73.562 175.969 72.522C176.558 71.482 177.364 70.676 178.387 70.104C179.427 69.5147 180.597 69.22 181.897 69.22C183.093 69.22 184.159 69.4887 185.095 70.026C186.048 70.5633 186.802 71.352 187.357 72.392C187.929 73.4147 188.215 74.6713 188.215 76.162C188.215 77.6353 187.938 78.892 187.383 79.932C186.828 80.972 186.074 81.7693 185.121 82.324C184.185 82.8613 183.11 83.13 181.897 83.13ZM182.027 81.492C182.998 81.492 183.864 81.2753 184.627 80.842C185.407 80.3913 186.014 79.7673 186.447 78.97C186.898 78.1553 187.123 77.2193 187.123 76.162C187.123 75.0873 186.898 74.1513 186.447 73.354C186.014 72.5567 185.407 71.9413 184.627 71.508C183.864 71.0573 182.998 70.832 182.027 70.832C181.074 70.832 180.216 71.0573 179.453 71.508C178.69 71.9413 178.084 72.5567 177.633 73.354C177.182 74.1513 176.957 75.0873 176.957 76.162C176.957 77.2193 177.182 78.1553 177.633 78.97C178.084 79.7673 178.69 80.3913 179.453 80.842C180.216 81.2753 181.074 81.492 182.027 81.492ZM187.175 83V78.892L187.357 76.136L187.097 73.38V63.708H188.943V83H187.175Z" fill="#F68723"/>
</g>
</svg>
