<svg width="228" height="74" viewBox="0 0 228 74" fill="none" xmlns="http://www.w3.org/2000/svg">
<g id="Component 2">
<path id="Rectangle 69" d="M0 37C0 16.5655 16.5655 0 37 0H228V74H37C16.5655 74 0 57.4345 0 37Z" fill="#F68723"/>
<g id="Group 43">
<path id="Vector 8" d="M20 37L29.2929 27.7071C29.6834 27.3166 30.3166 27.3166 30.7071 27.7071L40 37" stroke="white" stroke-width="1.5" stroke-linecap="round"/>
<path id="Vector 9" d="M22.7783 34.2223V46.0001C22.7783 46.5524 23.226 47.0001 23.7783 47.0001H36.2228C36.7751 47.0001 37.2228 46.5524 37.2228 46.0001V34.2223" stroke="white" stroke-width="1.5" stroke-linecap="round"/>
</g>
<path id="Dashboard" d="M62.964 46V27.8H70.374C72.3153 27.8 74.014 28.19 75.47 28.97C76.9433 29.7327 78.0873 30.7987 78.902 32.168C79.7167 33.5373 80.124 35.1147 80.124 36.9C80.124 38.6853 79.7167 40.2627 78.902 41.632C78.0873 43.0013 76.9433 44.076 75.47 44.856C74.014 45.6187 72.3153 46 70.374 46H62.964ZM64.888 44.336H70.27C71.882 44.336 73.2773 44.024 74.456 43.4C75.652 42.7587 76.5793 41.8833 77.238 40.774C77.8967 39.6473 78.226 38.356 78.226 36.9C78.226 35.4267 77.8967 34.1353 77.238 33.026C76.5793 31.9167 75.652 31.05 74.456 30.426C73.2773 29.7847 71.882 29.464 70.27 29.464H64.888V44.336ZM91.0485 46V42.984L90.9705 42.49V37.446C90.9705 36.2847 90.6411 35.392 89.9825 34.768C89.3411 34.144 88.3791 33.832 87.0965 33.832C86.2125 33.832 85.3718 33.9793 84.5745 34.274C83.7771 34.5687 83.1011 34.9587 82.5465 35.444L81.7145 34.066C82.4078 33.4767 83.2398 33.026 84.2105 32.714C85.1811 32.3847 86.2038 32.22 87.2785 32.22C89.0465 32.22 90.4071 32.662 91.3605 33.546C92.3311 34.4127 92.8165 35.7387 92.8165 37.524V46H91.0485ZM86.3425 46.13C85.3198 46.13 84.4271 45.9653 83.6645 45.636C82.9191 45.2893 82.3471 44.8213 81.9485 44.232C81.5498 43.6253 81.3505 42.932 81.3505 42.152C81.3505 41.4413 81.5151 40.8 81.8445 40.228C82.1911 39.6387 82.7458 39.1707 83.5085 38.824C84.2885 38.46 85.3285 38.278 86.6285 38.278H91.3345V39.656H86.6805C85.3631 39.656 84.4445 39.89 83.9245 40.358C83.4218 40.826 83.1705 41.4067 83.1705 42.1C83.1705 42.88 83.4738 43.504 84.0805 43.972C84.6871 44.44 85.5365 44.674 86.6285 44.674C87.6685 44.674 88.5611 44.44 89.3065 43.972C90.0691 43.4867 90.6238 42.7933 90.9705 41.892L91.3865 43.166C91.0398 44.0673 90.4331 44.7867 89.5665 45.324C88.7171 45.8613 87.6425 46.13 86.3425 46.13ZM99.9364 46.13C98.8097 46.13 97.7437 45.974 96.7384 45.662C95.7331 45.3327 94.9444 44.9253 94.3724 44.44L95.2044 42.984C95.7591 43.4 96.4697 43.764 97.3364 44.076C98.2031 44.3707 99.1131 44.518 100.066 44.518C101.366 44.518 102.302 44.3187 102.874 43.92C103.446 43.504 103.732 42.958 103.732 42.282C103.732 41.7793 103.568 41.3893 103.238 41.112C102.926 40.8173 102.51 40.6007 101.99 40.462C101.47 40.306 100.89 40.176 100.248 40.072C99.6071 39.968 98.9657 39.8467 98.3244 39.708C97.7004 39.5693 97.1284 39.37 96.6084 39.11C96.0884 38.8327 95.6637 38.46 95.3344 37.992C95.0224 37.524 94.8664 36.9 94.8664 36.12C94.8664 35.3747 95.0744 34.7073 95.4904 34.118C95.9064 33.5287 96.5131 33.0693 97.3104 32.74C98.1251 32.3933 99.1131 32.22 100.274 32.22C101.158 32.22 102.042 32.3413 102.926 32.584C103.81 32.8093 104.538 33.1127 105.11 33.494L104.304 34.976C103.698 34.56 103.048 34.2653 102.354 34.092C101.661 33.9013 100.968 33.806 100.274 33.806C99.0437 33.806 98.1337 34.0227 97.5444 34.456C96.9724 34.872 96.6864 35.4093 96.6864 36.068C96.6864 36.588 96.8424 36.9953 97.1544 37.29C97.4837 37.5847 97.9084 37.8187 98.4284 37.992C98.9657 38.148 99.5464 38.278 100.17 38.382C100.812 38.486 101.444 38.616 102.068 38.772C102.71 38.9107 103.29 39.11 103.81 39.37C104.348 39.6127 104.772 39.968 105.084 40.436C105.414 40.8867 105.578 41.4847 105.578 42.23C105.578 43.0273 105.353 43.7207 104.902 44.31C104.469 44.882 103.828 45.3327 102.978 45.662C102.146 45.974 101.132 46.13 99.9364 46.13ZM107.406 46V26.708H109.252V36.094L108.888 35.392C109.321 34.404 110.014 33.6327 110.968 33.078C111.921 32.506 113.056 32.22 114.374 32.22C115.483 32.22 116.454 32.4367 117.286 32.87C118.135 33.286 118.794 33.9273 119.262 34.794C119.747 35.6607 119.99 36.7527 119.99 38.07V46H118.144V38.252C118.144 36.8133 117.78 35.73 117.052 35.002C116.341 34.2567 115.336 33.884 114.036 33.884C113.065 33.884 112.216 34.0833 111.488 34.482C110.777 34.8633 110.222 35.4267 109.824 36.172C109.442 36.9 109.252 37.784 109.252 38.824V46H107.406ZM130.462 46.13C129.266 46.13 128.191 45.8613 127.238 45.324C126.285 44.7693 125.531 43.972 124.976 42.932C124.421 41.892 124.144 40.6353 124.144 39.162C124.144 37.6713 124.421 36.4147 124.976 35.392C125.548 34.352 126.311 33.5633 127.264 33.026C128.217 32.4887 129.283 32.22 130.462 32.22C131.762 32.22 132.923 32.5147 133.946 33.104C134.986 33.676 135.801 34.482 136.39 35.522C136.979 36.562 137.274 37.7753 137.274 39.162C137.274 40.5313 136.979 41.7447 136.39 42.802C135.801 43.842 134.986 44.6567 133.946 45.246C132.923 45.8353 131.762 46.13 130.462 46.13ZM123.416 46V26.708H125.262V36.38L125.002 39.136L125.184 41.892V46H123.416ZM130.332 44.492C131.303 44.492 132.169 44.2753 132.932 43.842C133.695 43.3913 134.301 42.7673 134.752 41.97C135.203 41.1553 135.428 40.2193 135.428 39.162C135.428 38.0873 135.203 37.1513 134.752 36.354C134.301 35.5567 133.695 34.9413 132.932 34.508C132.169 34.0573 131.303 33.832 130.332 33.832C129.361 33.832 128.486 34.0573 127.706 34.508C126.943 34.9413 126.337 35.5567 125.886 36.354C125.453 37.1513 125.236 38.0873 125.236 39.162C125.236 40.2193 125.453 41.1553 125.886 41.97C126.337 42.7673 126.943 43.3913 127.706 43.842C128.486 44.2753 129.361 44.492 130.332 44.492ZM145.041 46.13C143.724 46.13 142.536 45.8353 141.479 45.246C140.439 44.6393 139.616 43.816 139.009 42.776C138.402 41.7187 138.099 40.514 138.099 39.162C138.099 37.7927 138.402 36.588 139.009 35.548C139.616 34.508 140.439 33.6933 141.479 33.104C142.519 32.5147 143.706 32.22 145.041 32.22C146.393 32.22 147.589 32.5147 148.629 33.104C149.686 33.6933 150.51 34.508 151.099 35.548C151.706 36.588 152.009 37.7927 152.009 39.162C152.009 40.514 151.706 41.7187 151.099 42.776C150.51 43.816 149.686 44.6393 148.629 45.246C147.572 45.8353 146.376 46.13 145.041 46.13ZM145.041 44.492C146.029 44.492 146.904 44.2753 147.667 43.842C148.43 43.3913 149.028 42.7673 149.461 41.97C149.912 41.1553 150.137 40.2193 150.137 39.162C150.137 38.0873 149.912 37.1513 149.461 36.354C149.028 35.5567 148.43 34.9413 147.667 34.508C146.904 34.0573 146.038 33.832 145.067 33.832C144.096 33.832 143.23 34.0573 142.467 34.508C141.704 34.9413 141.098 35.5567 140.647 36.354C140.196 37.1513 139.971 38.0873 139.971 39.162C139.971 40.2193 140.196 41.1553 140.647 41.97C141.098 42.7673 141.704 43.3913 142.467 43.842C143.23 44.2753 144.088 44.492 145.041 44.492ZM162.696 46V42.984L162.618 42.49V37.446C162.618 36.2847 162.288 35.392 161.63 34.768C160.988 34.144 160.026 33.832 158.744 33.832C157.86 33.832 157.019 33.9793 156.222 34.274C155.424 34.5687 154.748 34.9587 154.194 35.444L153.362 34.066C154.055 33.4767 154.887 33.026 155.858 32.714C156.828 32.3847 157.851 32.22 158.926 32.22C160.694 32.22 162.054 32.662 163.008 33.546C163.978 34.4127 164.464 35.7387 164.464 37.524V46H162.696ZM157.99 46.13C156.967 46.13 156.074 45.9653 155.312 45.636C154.566 45.2893 153.994 44.8213 153.596 44.232C153.197 43.6253 152.998 42.932 152.998 42.152C152.998 41.4413 153.162 40.8 153.492 40.228C153.838 39.6387 154.393 39.1707 155.156 38.824C155.936 38.46 156.976 38.278 158.276 38.278H162.982V39.656H158.328C157.01 39.656 156.092 39.89 155.572 40.358C155.069 40.826 154.818 41.4067 154.818 42.1C154.818 42.88 155.121 43.504 155.728 43.972C156.334 44.44 157.184 44.674 158.276 44.674C159.316 44.674 160.208 44.44 160.954 43.972C161.716 43.4867 162.271 42.7933 162.618 41.892L163.034 43.166C162.687 44.0673 162.08 44.7867 161.214 45.324C160.364 45.8613 159.29 46.13 157.99 46.13ZM167.918 46V32.35H169.686V36.068L169.504 35.418C169.885 34.378 170.526 33.5893 171.428 33.052C172.329 32.4973 173.447 32.22 174.782 32.22V34.014C174.712 34.014 174.643 34.014 174.574 34.014C174.504 33.9967 174.435 33.988 174.366 33.988C172.927 33.988 171.8 34.43 170.986 35.314C170.171 36.1807 169.764 37.42 169.764 39.032V46H167.918ZM181.897 46.13C180.597 46.13 179.427 45.8353 178.387 45.246C177.364 44.6567 176.558 43.842 175.969 42.802C175.38 41.7447 175.085 40.5313 175.085 39.162C175.085 37.7753 175.38 36.562 175.969 35.522C176.558 34.482 177.364 33.676 178.387 33.104C179.427 32.5147 180.597 32.22 181.897 32.22C183.093 32.22 184.159 32.4887 185.095 33.026C186.048 33.5633 186.802 34.352 187.357 35.392C187.929 36.4147 188.215 37.6713 188.215 39.162C188.215 40.6353 187.938 41.892 187.383 42.932C186.828 43.972 186.074 44.7693 185.121 45.324C184.185 45.8613 183.11 46.13 181.897 46.13ZM182.027 44.492C182.998 44.492 183.864 44.2753 184.627 43.842C185.407 43.3913 186.014 42.7673 186.447 41.97C186.898 41.1553 187.123 40.2193 187.123 39.162C187.123 38.0873 186.898 37.1513 186.447 36.354C186.014 35.5567 185.407 34.9413 184.627 34.508C183.864 34.0573 182.998 33.832 182.027 33.832C181.074 33.832 180.216 34.0573 179.453 34.508C178.69 34.9413 178.084 35.5567 177.633 36.354C177.182 37.1513 176.957 38.0873 176.957 39.162C176.957 40.2193 177.182 41.1553 177.633 41.97C178.084 42.7673 178.69 43.3913 179.453 43.842C180.216 44.2753 181.074 44.492 182.027 44.492ZM187.175 46V41.892L187.357 39.136L187.097 36.38V26.708H188.943V46H187.175Z" fill="white"/>
</g>
</svg>
