<svg width="1200" height="800" xmlns="http://www.w3.org/2000/svg">

  <!-- Title -->
  <text x="600" y="50" font-family="Arial" font-size="32" font-weight="bold" text-anchor="middle" fill="#2C4563">
    EXACT FIGMA COMPONENT SHAPE (From Exported SVG)
  </text>

  <!-- Component 2 - Simple Orange Pill -->
  <g transform="translate(100, 100)">
    <text x="0" y="-10" font-family="Arial" font-size="18" font-weight="bold" fill="#2C4563">
      Component 2 (Simple Pill)
    </text>
    <path d="M0 37C0 16.5655 16.5655 0 37 0H228V74H37C16.5655 74 0 57.4345 0 37Z" fill="#F68723"/>
    <text x="114" y="42" font-family="Arial" font-size="14" font-weight="bold" text-anchor="middle" fill="#FFFFFF">
      Dashboard
    </text>

    <!-- Measurements -->
    <line x1="0" y1="90" x2="228" y2="90" stroke="#DC3545" stroke-width="2"/>
    <text x="114" y="108" font-family="Arial" font-size="12" fill="#DC3545" text-anchor="middle">228px</text>

    <line x1="240" y1="0" x2="240" y2="74" stroke="#DC3545" stroke-width="2"/>
    <text x="255" y="42" font-family="Arial" font-size="12" fill="#DC3545">74px</text>
  </g>

  <!-- Component 3 - With Concave Curves (THIS IS THE ACTIVE TAB!) -->
  <g transform="translate(100, 280)">
    <text x="0" y="-10" font-family="Arial" font-size="18" font-weight="bold" fill="#2C4563">
      Component 3/4 (Active Tab with Concave Curves)
    </text>

    <!-- Main Rectangle 49 -->
    <path d="M0 74C0 53.5655 16.5655 37 37 37H186V111H37C16.5655 111 0 94.4345 0 74Z" fill="#FCE1C8"/>

    <!-- Subtract Path (Extension with curves) -->
    <path d="M228 148C228 127.565 211.435 111 191 111H186V37H191C211.435 37 228 20.4345 228 0V148Z" fill="#FCE1C8"/>

    <text x="93" y="79" font-family="Arial" font-size="14" font-weight="bold" text-anchor="middle" fill="#F68723">
      Dashboard
    </text>

    <!-- Annotations -->

    <!-- Main rectangle boundary -->
    <line x1="186" y1="20" x2="186" y2="130" stroke="#DC3545" stroke-width="2" stroke-dasharray="5,5"/>
    <text x="186" y="15" font-family="Arial" font-size="12" fill="#DC3545" text-anchor="middle">x=186</text>

    <!-- Extension boundary -->
    <line x1="228" y1="0" x2="228" y2="148" stroke="#28A745" stroke-width="2" stroke-dasharray="5,5"/>
    <text x="228" y="-8" font-family="Arial" font-size="12" fill="#28A745" text-anchor="middle">x=228</text>

    <!-- Extension width -->
    <line x1="186" y1="160" x2="228" y2="160" stroke="#28A745" stroke-width="2"/>
    <line x1="186" y1="155" x2="186" y2="165" stroke="#28A745" stroke-width="2"/>
    <line x1="228" y1="155" x2="228" y2="165" stroke="#28A745" stroke-width="2"/>
    <text x="207" y="178" font-family="Arial" font-size="12" fill="#28A745" text-anchor="middle" font-weight="bold">42px extension</text>

    <!-- Total width -->
    <line x1="0" y1="170" x2="228" y2="170" stroke="#2C4563" stroke-width="2"/>
    <text x="114" y="188" font-family="Arial" font-size="12" fill="#2C4563" text-anchor="middle">Total: 228px</text>

    <!-- Main rectangle width -->
    <line x1="0" y1="25" x2="186" y2="25" stroke="#DC3545" stroke-width="2"/>
    <text x="93" y="18" font-family="Arial" font-size="12" fill="#DC3545" text-anchor="middle">186px</text>

    <!-- Height markers -->
    <line x1="-15" y1="37" x2="-15" y2="111" stroke="#2C4563" stroke-width="2"/>
    <text x="-25" y="79" font-family="Arial" font-size="12" fill="#2C4563" text-anchor="end">74px</text>

    <!-- Top curve highlight -->
    <circle cx="207" cy="37" r="5" fill="#DC3545"/>
    <text x="250" y="30" font-family="Arial" font-size="11" fill="#DC3545">TOP CONCAVE CURVE</text>
    <text x="250" y="43" font-family="Arial" font-size="10" fill="#666">(Cubic Bezier)</text>

    <!-- Bottom curve highlight -->
    <circle cx="207" cy="111" r="5" fill="#DC3545"/>
    <text x="250" y="115" font-family="Arial" font-size="11" fill="#DC3545">BOTTOM CONCAVE CURVE</text>
    <text x="250" y="128" font-family="Arial" font-size="10" fill="#666">(Cubic Bezier)</text>
  </g>

  <!-- SVG Path Code Display -->
  <g transform="translate(500, 280)">
    <rect x="0" y="0" width="650" height="280" fill="#F5F5F5" stroke="#999" stroke-width="2" rx="8"/>
    <text x="325" y="30" font-family="monospace" font-size="14" font-weight="bold" text-anchor="middle" fill="#2C4563">
      EXACT SVG PATHS FROM FIGMA
    </text>

    <text x="20" y="60" font-family="monospace" font-size="11" font-weight="bold" fill="#DC3545">
      Rectangle 49 (Main Pill):
    </text>
    <text x="30" y="78" font-family="monospace" font-size="9" fill="#333">
      M0 74 C0 53.5655 16.5655 37 37 37
    </text>
    <text x="30" y="93" font-family="monospace" font-size="9" fill="#333">
      H186 V111
    </text>
    <text x="30" y="108" font-family="monospace" font-size="9" fill="#333">
      H37 C16.5655 111 0 94.4345 0 74 Z
    </text>

    <text x="20" y="135" font-family="monospace" font-size="11" font-weight="bold" fill="#28A745">
      Subtract Path (42px Extension):
    </text>
    <text x="30" y="153" font-family="monospace" font-size="9" fill="#333">
      M228 148
    </text>
    <text x="30" y="168" font-family="monospace" font-size="9" fill="#333">
      C228 127.565 211.435 111 191 111
    </text>
    <text x="30" y="183" font-family="monospace" font-size="9" fill="#333">
      H186 V37 H191
    </text>
    <text x="30" y="198" font-family="monospace" font-size="9" fill="#333">
      C211.435 37 228 20.4345 228 0
    </text>
    <text x="30" y="213" font-family="monospace" font-size="9" fill="#333">
      V148 Z
    </text>

    <text x="20" y="240" font-family="monospace" font-size="11" font-weight="bold" fill="#F68723">
      Fill Color:
    </text>
    <rect x="100" y="228" width="40" height="20" fill="#FCE1C8" stroke="#333"/>
    <text x="145" y="243" font-family="monospace" font-size="10" fill="#333">
      #FCE1C8 (Cream)
    </text>
  </g>

  <!-- Key Specifications -->
  <rect x="100" y="600" width="1000" height="150" fill="#FFF9E6" stroke="#F68723" stroke-width="3" rx="10"/>
  <text x="600" y="635" font-family="Arial" font-size="20" font-weight="bold" text-anchor="middle" fill="#2C4563">
    ✅ FINAL SPECIFICATIONS
  </text>

  <text x="130" y="670" font-family="Arial" font-size="14" fill="#333">
    • Main Rectangle: 186px × 74px, 37px radius on LEFT corners
  </text>
  <text x="130" y="695" font-family="Arial" font-size="14" fill="#333">
    • Extension: 42px wide (from x=186 to x=228)
  </text>
  <text x="130" y="720" font-family="Arial" font-size="14" fill="#333">
    • Concave Curves: Cubic Bezier with ~37px effective radius
  </text>

  <text x="650" y="670" font-family="Arial" font-size="14" fill="#333">
    • Total Width: 228px
  </text>
  <text x="650" y="695" font-family="Arial" font-size="14" fill="#333">
    • Total Height: 148px (includes padding)
  </text>
  <text x="650" y="720" font-family="Arial" font-size="14" fill="#333">
    • Active Area: y=37 to y=111 (74px)
  </text>

</svg>
