<?xml version="1.0" encoding="UTF-8"?>
<svg xmlns="http://www.w3.org/2000/svg" viewBox="0 0 250 130" width="2500" height="1300">
  <defs>
    <marker id="arrow-right" markerWidth="6" markerHeight="4" refX="6" refY="2" orient="auto">
      <polygon points="0,0 6,2 0,4" fill="#E53935"/>
    </marker>
    <marker id="arrow-left" markerWidth="6" markerHeight="4" refX="0" refY="2" orient="auto">
      <polygon points="6,0 0,2 6,4" fill="#E53935"/>
    </marker>
    <marker id="arrow-down" markerWidth="4" markerHeight="6" refX="2" refY="6" orient="auto">
      <polygon points="0,0 4,0 2,6" fill="#E53935"/>
    </marker>
    <marker id="arrow-up" markerWidth="4" markerHeight="6" refX="2" refY="0" orient="auto">
      <polygon points="0,6 4,6 2,0" fill="#E53935"/>
    </marker>
    <marker id="blue-right" markerWidth="6" markerHeight="4" refX="6" refY="2" orient="auto">
      <polygon points="0,0 6,2 0,4" fill="#1565C0"/>
    </marker>
    <marker id="blue-left" markerWidth="6" markerHeight="4" refX="0" refY="2" orient="auto">
      <polygon points="6,0 0,2 6,4" fill="#1565C0"/>
    </marker>
    <marker id="blue-down" markerWidth="4" markerHeight="6" refX="2" refY="6" orient="auto">
      <polygon points="0,0 4,0 2,6" fill="#1565C0"/>
    </marker>
    <marker id="blue-up" markerWidth="4" markerHeight="6" refX="2" refY="0" orient="auto">
      <polygon points="0,6 4,6 2,0" fill="#1565C0"/>
    </marker>
    <style>
      .title { font: bold 3px sans-serif; fill: #212121; }
      .subtitle { font: 2px sans-serif; fill: #616161; }
      .dim-text { font: bold 1.8px sans-serif; fill: #E53935; }
      .dim-text-blue { font: bold 1.8px sans-serif; fill: #1565C0; }
      .section-label { font: bold 1.6px sans-serif; fill: #fff; }
      .element-text { font: 1.4px sans-serif; fill: #424242; }
      .element-bold { font: bold 1.4px sans-serif; fill: #212121; }
      .css-text { font: italic 1.2px monospace; fill: #7B1FA2; }
      .font-size-tag { font: bold 1.1px sans-serif; fill: #fff; }
      .note-text { font: 1.3px sans-serif; fill: #455A64; }
    </style>
  </defs>

  <!-- Background -->
  <rect width="250" height="130" fill="#FAFAFA"/>

  <!-- Title -->
  <text x="125" y="5" text-anchor="middle" class="title">SHIPPING LABEL LAYOUT DIAGRAM — labelRenderer.js (Current Code)</text>
  <text x="125" y="7.5" text-anchor="middle" class="subtitle">Thermal/Standard Format: 100mm x auto | All dimensions in mm (px at 96dpi)</text>

  <!-- ========== LABEL CONTAINER ========== -->
  <!-- Label origin at x=45, y=10 -->
  <!-- Scale: 1 unit in SVG = 1mm real -->
  <!-- Label width = 100mm, sections stacked vertically -->

  <!-- Label outer border -->
  <rect x="45" y="10" width="100" height="80" fill="white" stroke="#000" stroke-width="0.3"/>

  <!-- ===== SECTION 1: HEADER (Ship To + Company Branding) ===== -->
  <!-- min-height: 70px = 18.5mm -->
  <rect x="45" y="10" width="100" height="18.5" fill="white" stroke="#000" stroke-width="0.2"/>
  <!-- Section label badge -->
  <rect x="45.3" y="10.3" width="22" height="2.5" rx="0.5" fill="#1565C0"/>
  <text x="46" y="12.1" class="section-label">S1: HEADER</text>

  <!-- Grid divider (1fr | 1fr = 50mm | 50mm) -->
  <line x1="95" y1="10" x2="95" y2="28.5" stroke="#ccc" stroke-width="0.15" stroke-dasharray="0.5,0.5"/>

  <!-- LEFT: Ship To -->
  <text x="47" y="14.5" class="element-bold">Ship To:</text>
  <rect x="62" y="13.5" width="5" height="1.8" rx="0.3" fill="#FF6F00"/>
  <text x="62.3" y="14.8" class="font-size-tag">9px</text>

  <text x="47" y="16.2" class="element-text">Customer Name (bold)</text>
  <rect x="68" y="15.2" width="5" height="1.8" rx="0.3" fill="#FF6F00"/>
  <text x="68.3" y="16.5" class="font-size-tag">9px</text>

  <text x="47" y="17.8" class="element-text">Full Address</text>
  <rect x="58" y="16.8" width="6.5" height="1.8" rx="0.3" fill="#FF6F00"/>
  <text x="58.3" y="18.1" class="font-size-tag">7.5px</text>

  <text x="47" y="19.4" class="element-text" fill="#0066cc">City, Pincode, India</text>
  <rect x="64" y="18.4" width="6.5" height="1.8" rx="0.3" fill="#FF6F00"/>
  <text x="64.3" y="19.7" class="font-size-tag">7.5px</text>

  <text x="47" y="21" class="element-text">Mobile Number: XXXXXXXXXX</text>
  <rect x="72" y="20" width="6.5" height="1.8" rx="0.3" fill="#FF6F00"/>
  <text x="72.3" y="21.3" class="font-size-tag">7.5px</text>

  <!-- Padding annotation for Ship To -->
  <text x="47" y="23.5" class="css-text">padding: 6px 8px</text>

  <!-- RIGHT: Company Branding -->
  <rect x="103" y="13" width="15" height="5" rx="0.5" fill="#E3F2FD" stroke="#90CAF9" stroke-width="0.15"/>
  <text x="110.5" y="16" text-anchor="middle" class="element-text">[LOGO]</text>
  <text x="118.5" y="15" class="css-text">max: 100x35px</text>
  <text x="118.5" y="16.5" class="css-text">= 26.5x9.3mm</text>

  <text x="110.5" y="20" text-anchor="middle" class="element-bold" font-style="italic">Brand Name</text>
  <rect x="121" y="19" width="6" height="1.8" rx="0.3" fill="#FF6F00"/>
  <text x="121.3" y="20.3" class="font-size-tag">10px</text>

  <text x="110.5" y="22" text-anchor="middle" class="element-text">Mob.: XXXXXXXXXX</text>
  <rect x="121" y="21" width="5" height="1.8" rx="0.3" fill="#FF6F00"/>
  <text x="121.3" y="22.3" class="font-size-tag">7px</text>

  <text x="110.5" y="24.5" text-anchor="middle" class="css-text">flex-col, center aligned</text>

  <!-- Section 1 height dimension (right side) -->
  <line x1="147" y1="10" x2="147" y2="28.5" stroke="#E53935" stroke-width="0.15"/>
  <line x1="145" y1="10" x2="149" y2="10" stroke="#E53935" stroke-width="0.15"/>
  <line x1="145" y1="28.5" x2="149" y2="28.5" stroke="#E53935" stroke-width="0.15"/>
  <line x1="147" y1="10.5" x2="147" y2="14" marker-start="url(#arrow-up)" marker-end="url(#arrow-down)" stroke="#E53935" stroke-width="0.15"/>
  <text x="148" y="19.5" class="dim-text">18.5mm</text>
  <text x="148" y="21.2" class="dim-text">(70px min)</text>

  <!-- ===== SECTION 2: COURIER & PAYMENT INFO ===== -->
  <!-- min-height: 60px = 16mm, but barcode makes it ~20mm -->
  <rect x="45" y="28.5" width="100" height="20" fill="white" stroke="#000" stroke-width="0.2"/>
  <rect x="45.3" y="28.8" width="30" height="2.5" rx="0.5" fill="#2E7D32"/>
  <text x="46" y="30.6" class="section-label">S2: COURIER &amp; PAYMENT</text>

  <!-- Grid divider -->
  <line x1="95" y1="28.5" x2="95" y2="48.5" stroke="#ccc" stroke-width="0.15" stroke-dasharray="0.5,0.5"/>

  <!-- LEFT: Courier section -->
  <text x="47" y="33" class="element-bold">Courier: <tspan font-weight="normal">Delhivery</tspan></text>
  <rect x="72" y="32" width="5" height="1.8" rx="0.3" fill="#FF6F00"/>
  <text x="72.3" y="33.3" class="font-size-tag">8px</text>

  <!-- AWB Barcode box -->
  <rect x="47" y="34.5" width="47.625" height="10.583" fill="#f5f5f5" stroke="#333" stroke-width="0.2"/>
  <!-- Barcode lines inside -->
  <g opacity="0.6">
    <line x1="48" y1="35.5" x2="48" y2="44" stroke="#000" stroke-width="0.3"/>
    <line x1="49" y1="35.5" x2="49" y2="44" stroke="#000" stroke-width="0.5"/>
    <line x1="50.5" y1="35.5" x2="50.5" y2="44" stroke="#000" stroke-width="0.3"/>
    <line x1="51.5" y1="35.5" x2="51.5" y2="44" stroke="#000" stroke-width="0.7"/>
    <line x1="53" y1="35.5" x2="53" y2="44" stroke="#000" stroke-width="0.3"/>
    <line x1="54" y1="35.5" x2="54" y2="44" stroke="#000" stroke-width="0.5"/>
    <line x1="55.5" y1="35.5" x2="55.5" y2="44" stroke="#000" stroke-width="0.3"/>
    <line x1="57" y1="35.5" x2="57" y2="44" stroke="#000" stroke-width="0.7"/>
    <line x1="58.5" y1="35.5" x2="58.5" y2="44" stroke="#000" stroke-width="0.3"/>
    <line x1="59.5" y1="35.5" x2="59.5" y2="44" stroke="#000" stroke-width="0.5"/>
    <line x1="61" y1="35.5" x2="61" y2="44" stroke="#000" stroke-width="0.3"/>
    <line x1="62" y1="35.5" x2="62" y2="44" stroke="#000" stroke-width="0.7"/>
    <line x1="63.5" y1="35.5" x2="63.5" y2="44" stroke="#000" stroke-width="0.3"/>
    <line x1="65" y1="35.5" x2="65" y2="44" stroke="#000" stroke-width="0.5"/>
    <line x1="66.5" y1="35.5" x2="66.5" y2="44" stroke="#000" stroke-width="0.3"/>
    <line x1="68" y1="35.5" x2="68" y2="44" stroke="#000" stroke-width="0.7"/>
    <line x1="69.5" y1="35.5" x2="69.5" y2="44" stroke="#000" stroke-width="0.3"/>
    <line x1="70.5" y1="35.5" x2="70.5" y2="44" stroke="#000" stroke-width="0.5"/>
    <line x1="72" y1="35.5" x2="72" y2="44" stroke="#000" stroke-width="0.3"/>
    <line x1="73.5" y1="35.5" x2="73.5" y2="44" stroke="#000" stroke-width="0.7"/>
    <line x1="75" y1="35.5" x2="75" y2="44" stroke="#000" stroke-width="0.3"/>
    <line x1="76" y1="35.5" x2="76" y2="44" stroke="#000" stroke-width="0.5"/>
    <line x1="77.5" y1="35.5" x2="77.5" y2="44" stroke="#000" stroke-width="0.3"/>
    <line x1="79" y1="35.5" x2="79" y2="44" stroke="#000" stroke-width="0.7"/>
    <line x1="80.5" y1="35.5" x2="80.5" y2="44" stroke="#000" stroke-width="0.3"/>
    <line x1="82" y1="35.5" x2="82" y2="44" stroke="#000" stroke-width="0.5"/>
    <line x1="83.5" y1="35.5" x2="83.5" y2="44" stroke="#000" stroke-width="0.3"/>
    <line x1="85" y1="35.5" x2="85" y2="44" stroke="#000" stroke-width="0.7"/>
    <line x1="86.5" y1="35.5" x2="86.5" y2="44" stroke="#000" stroke-width="0.3"/>
    <line x1="88" y1="35.5" x2="88" y2="44" stroke="#000" stroke-width="0.5"/>
    <line x1="89.5" y1="35.5" x2="89.5" y2="44" stroke="#000" stroke-width="0.3"/>
    <line x1="91" y1="35.5" x2="91" y2="44" stroke="#000" stroke-width="0.7"/>
    <line x1="92.5" y1="35.5" x2="92.5" y2="44" stroke="#000" stroke-width="0.3"/>
    <line x1="93.5" y1="35.5" x2="93.5" y2="44" stroke="#000" stroke-width="0.5"/>
  </g>
  <text x="70.8" y="40" text-anchor="middle" class="element-bold" fill="#E53935" font-size="2">AWB BARCODE</text>

  <!-- Barcode dimension arrows (width) -->
  <line x1="47" y1="46.5" x2="94.625" y2="46.5" stroke="#1565C0" stroke-width="0.15" marker-start="url(#blue-left)" marker-end="url(#blue-right)"/>
  <text x="70.8" y="48" text-anchor="middle" class="dim-text-blue">47.625mm (180px / 562.5px @300dpi)</text>

  <!-- Barcode dimension arrows (height) -->
  <line x1="43" y1="34.5" x2="43" y2="45.083" stroke="#1565C0" stroke-width="0.15" marker-start="url(#blue-up)" marker-end="url(#blue-down)"/>
  <text x="33" y="39.5" text-anchor="middle" class="dim-text-blue">10.583mm</text>
  <text x="33" y="41.2" text-anchor="middle" class="dim-text-blue">(40px/125px)</text>

  <text x="47" y="46" class="element-bold">AWB: 14422812XXXXX</text>

  <!-- RIGHT: Payment info -->
  <text x="97" y="33" class="element-text"><tspan fill="#0066cc">Dimensions:</tspan> 10x10x10 CM</text>
  <text x="97" y="34.8" class="element-text"><tspan fill="#0066cc">Weight:</tspan> 0.5Kg</text>
  <text x="97" y="36.6" class="element-text"><tspan fill="#0066cc">Payment:</tspan> COD/Prepaid</text>
  <text x="97" y="38.4" class="element-text"><tspan fill="#0066cc">Invoice No:</tspan> INV-XXXX</text>
  <text x="97" y="40.2" class="element-text"><tspan fill="#0066cc">Invoice Date:</tspan> 30 Jan 2026</text>

  <rect x="130" y="32" width="6.5" height="1.8" rx="0.3" fill="#FF6F00"/>
  <text x="130.3" y="33.3" class="font-size-tag">7.5px</text>

  <text x="97" y="43" class="css-text">labels: #0066cc (blue)</text>
  <text x="97" y="44.5" class="css-text">min-width: 70px (18.5mm)</text>

  <!-- Section 2 height dimension -->
  <line x1="147" y1="28.5" x2="147" y2="48.5" stroke="#E53935" stroke-width="0.15"/>
  <line x1="145" y1="28.5" x2="149" y2="28.5" stroke="#E53935" stroke-width="0.15"/>
  <line x1="145" y1="48.5" x2="149" y2="48.5" stroke="#E53935" stroke-width="0.15"/>
  <text x="148" y="38.5" class="dim-text">~20mm</text>
  <text x="148" y="40.2" class="dim-text">(60px min</text>
  <text x="148" y="41.9" class="dim-text">+ barcode)</text>

  <!-- ===== SECTION 3: SHIPPED BY & ORDER INFO ===== -->
  <rect x="45" y="48.5" width="100" height="21" fill="white" stroke="#000" stroke-width="0.2"/>
  <rect x="45.3" y="48.8" width="32" height="2.5" rx="0.5" fill="#E65100"/>
  <text x="46" y="50.6" class="section-label">S3: SHIPPED BY &amp; ORDER</text>

  <!-- Grid divider -->
  <line x1="95" y1="48.5" x2="95" y2="69.5" stroke="#ccc" stroke-width="0.15" stroke-dasharray="0.5,0.5"/>

  <!-- LEFT: Shipped By -->
  <text x="47" y="53.5" class="element-bold">Shipped By: <tspan font-weight="normal" fill="#0066cc" font-size="1.2">(if undelivered, return to)</tspan></text>
  <rect x="88" y="52.5" width="5" height="1.8" rx="0.3" fill="#FF6F00"/>
  <text x="88.3" y="53.8" class="font-size-tag">8px</text>

  <text x="47" y="55.2" class="element-bold">Company Name</text>
  <text x="47" y="56.7" class="element-text">GSTIN: XXXXXXXXX</text>
  <text x="47" y="58.2" class="element-text">Seller Name</text>
  <text x="47" y="59.7" class="element-text">Full Return Address</text>
  <text x="47" y="61.2" class="element-text" fill="#0066cc">State, Pincode, India</text>
  <text x="47" y="62.7" class="element-text">Mobile Number: XXXXXXXXXX</text>

  <!-- Font size tags -->
  <rect x="72" y="54.2" width="5" height="1.8" rx="0.3" fill="#FF6F00"/>
  <text x="72.3" y="55.5" class="font-size-tag">8px</text>
  <rect x="67" y="55.7" width="5" height="1.8" rx="0.3" fill="#FF6F00"/>
  <text x="67.3" y="57" class="font-size-tag">7px</text>
  <rect x="64" y="57.2" width="6.5" height="1.8" rx="0.3" fill="#FF6F00"/>
  <text x="64.3" y="58.5" class="font-size-tag">7.5px</text>
  <rect x="67" y="58.7" width="5" height="1.8" rx="0.3" fill="#FF6F00"/>
  <text x="67.3" y="60" class="font-size-tag">7px</text>

  <!-- RIGHT: Order Info -->
  <text x="120" y="53.5" text-anchor="middle" class="element-bold">Order ID: #12345</text>
  <rect x="130" y="52.5" width="5" height="1.8" rx="0.3" fill="#FF6F00"/>
  <text x="130.3" y="53.8" class="font-size-tag">8px</text>

  <!-- Order Barcode -->
  <rect x="96.2" y="54.5" width="47.625" height="10.583" fill="#f5f5f5" stroke="#333" stroke-width="0.2"/>
  <g opacity="0.5">
    <line x1="98" y1="55.5" x2="98" y2="64" stroke="#000" stroke-width="0.3"/>
    <line x1="99.5" y1="55.5" x2="99.5" y2="64" stroke="#000" stroke-width="0.5"/>
    <line x1="101" y1="55.5" x2="101" y2="64" stroke="#000" stroke-width="0.3"/>
    <line x1="102.5" y1="55.5" x2="102.5" y2="64" stroke="#000" stroke-width="0.7"/>
    <line x1="104" y1="55.5" x2="104" y2="64" stroke="#000" stroke-width="0.3"/>
    <line x1="106" y1="55.5" x2="106" y2="64" stroke="#000" stroke-width="0.5"/>
    <line x1="108" y1="55.5" x2="108" y2="64" stroke="#000" stroke-width="0.3"/>
    <line x1="109.5" y1="55.5" x2="109.5" y2="64" stroke="#000" stroke-width="0.7"/>
    <line x1="111" y1="55.5" x2="111" y2="64" stroke="#000" stroke-width="0.3"/>
    <line x1="113" y1="55.5" x2="113" y2="64" stroke="#000" stroke-width="0.5"/>
    <line x1="115" y1="55.5" x2="115" y2="64" stroke="#000" stroke-width="0.3"/>
    <line x1="116.5" y1="55.5" x2="116.5" y2="64" stroke="#000" stroke-width="0.7"/>
    <line x1="118" y1="55.5" x2="118" y2="64" stroke="#000" stroke-width="0.3"/>
    <line x1="120" y1="55.5" x2="120" y2="64" stroke="#000" stroke-width="0.5"/>
    <line x1="122" y1="55.5" x2="122" y2="64" stroke="#000" stroke-width="0.3"/>
    <line x1="123.5" y1="55.5" x2="123.5" y2="64" stroke="#000" stroke-width="0.7"/>
    <line x1="125" y1="55.5" x2="125" y2="64" stroke="#000" stroke-width="0.3"/>
    <line x1="127" y1="55.5" x2="127" y2="64" stroke="#000" stroke-width="0.5"/>
    <line x1="129" y1="55.5" x2="129" y2="64" stroke="#000" stroke-width="0.3"/>
    <line x1="130.5" y1="55.5" x2="130.5" y2="64" stroke="#000" stroke-width="0.7"/>
    <line x1="132" y1="55.5" x2="132" y2="64" stroke="#000" stroke-width="0.3"/>
    <line x1="134" y1="55.5" x2="134" y2="64" stroke="#000" stroke-width="0.5"/>
    <line x1="136" y1="55.5" x2="136" y2="64" stroke="#000" stroke-width="0.3"/>
    <line x1="137.5" y1="55.5" x2="137.5" y2="64" stroke="#000" stroke-width="0.7"/>
    <line x1="139" y1="55.5" x2="139" y2="64" stroke="#000" stroke-width="0.3"/>
    <line x1="141" y1="55.5" x2="141" y2="64" stroke="#000" stroke-width="0.5"/>
    <line x1="142.5" y1="55.5" x2="142.5" y2="64" stroke="#000" stroke-width="0.3"/>
  </g>
  <text x="120" y="60" text-anchor="middle" class="element-bold" fill="#E53935" font-size="1.8">ORDER BARCODE</text>

  <text x="120" y="66.5" text-anchor="middle" class="element-text">Reference ID: REF-XXXXXXXXXX</text>
  <rect x="136" y="65.5" width="5" height="1.8" rx="0.3" fill="#FF6F00"/>
  <text x="136.3" y="66.8" class="font-size-tag">7px</text>

  <text x="120" y="68.8" text-anchor="middle" class="element-bold" fill="#cc0000" font-size="2.5">COD</text>
  <rect x="128" y="67" width="6" height="2" rx="0.3" fill="#FF6F00"/>
  <text x="128.3" y="68.5" class="font-size-tag">14px</text>

  <!-- Section 3 height dimension -->
  <line x1="147" y1="48.5" x2="147" y2="69.5" stroke="#E53935" stroke-width="0.15"/>
  <line x1="145" y1="48.5" x2="149" y2="48.5" stroke="#E53935" stroke-width="0.15"/>
  <line x1="145" y1="69.5" x2="149" y2="69.5" stroke="#E53935" stroke-width="0.15"/>
  <text x="148" y="59" class="dim-text">21mm</text>
  <text x="148" y="60.7" class="dim-text">(80px min)</text>

  <!-- ===== SECTION 4: PRODUCTS TABLE ===== -->
  <rect x="45" y="69.5" width="100" height="13" fill="white" stroke="#000" stroke-width="0.2"/>
  <rect x="45.3" y="69.8" width="24" height="2.5" rx="0.5" fill="#6A1B9A"/>
  <text x="46" y="71.6" class="section-label">S4: PRODUCTS</text>

  <!-- Table header -->
  <rect x="47" y="73" width="96" height="2.5" fill="#1a3a5c"/>
  <text x="49" y="74.6" fill="white" font-size="1.3" font-weight="bold" font-family="sans-serif">SKU</text>
  <text x="62" y="74.6" fill="white" font-size="1.3" font-weight="bold" font-family="sans-serif">Item</text>
  <text x="105" y="74.6" fill="white" font-size="1.3" font-weight="bold" font-family="sans-serif">Qty</text>
  <text x="125" y="74.6" fill="white" font-size="1.3" font-weight="bold" font-family="sans-serif">Amount</text>

  <rect x="138" y="72.5" width="5" height="1.8" rx="0.3" fill="#FF6F00"/>
  <text x="138.3" y="73.8" class="font-size-tag">7px</text>

  <!-- Table row -->
  <text x="49" y="77" class="element-text">SKU001</text>
  <text x="62" y="77" class="element-text">Product Name</text>
  <text x="107" y="77" class="element-text">1</text>
  <text x="130" y="77" class="element-text">Rs.XXX</text>
  <line x1="47" y1="77.5" x2="143" y2="77.5" stroke="#ddd" stroke-width="0.1"/>

  <rect x="138" y="75.5" width="6.5" height="1.8" rx="0.3" fill="#FF6F00"/>
  <text x="138.3" y="76.8" class="font-size-tag">7.5px</text>

  <!-- Total -->
  <text x="130" y="79.5" class="element-bold" text-anchor="end">Total: Rs.XXXX</text>
  <rect x="131" y="78.5" width="5" height="1.8" rx="0.3" fill="#FF6F00"/>
  <text x="131.3" y="79.8" class="font-size-tag">8px</text>

  <text x="47" y="81" class="css-text">padding: 4px 8px | header bg: #1a3a5c</text>

  <!-- Section 4 height dimension -->
  <line x1="147" y1="69.5" x2="147" y2="82.5" stroke="#E53935" stroke-width="0.15"/>
  <line x1="145" y1="69.5" x2="149" y2="69.5" stroke="#E53935" stroke-width="0.15"/>
  <line x1="145" y1="82.5" x2="149" y2="82.5" stroke="#E53935" stroke-width="0.15"/>
  <text x="148" y="76" class="dim-text">~13mm</text>
  <text x="148" y="77.7" class="dim-text">(~50px)</text>

  <!-- ===== SECTION 5: FOOTER ===== -->
  <rect x="45" y="82.5" width="100" height="7.5" fill="#f5f5f5" stroke="#000" stroke-width="0.2"/>
  <rect x="45.3" y="82.8" width="18" height="2.5" rx="0.5" fill="#455A64"/>
  <text x="46" y="84.6" class="section-label">S5: FOOTER</text>

  <text x="47" y="87" class="element-text" font-size="1">1) Shipsarthi is not liable for...</text>
  <text x="47" y="88.2" class="element-text" font-size="1">2) Goods once sold will only...</text>
  <text x="47" y="89.3" class="element-text" font-size="1">3) Please refer to www.shipsarthi.com...</text>

  <rect x="75" y="86" width="6.5" height="1.8" rx="0.3" fill="#FF6F00"/>
  <text x="75.3" y="87.3" class="font-size-tag">5.5px</text>

  <!-- Branding right -->
  <text x="133" y="86.5" class="element-text" font-style="italic" fill="#666">Powered by:</text>
  <rect x="128" y="87.5" width="14" height="2" rx="0.3" fill="#E3F2FD" stroke="#90CAF9" stroke-width="0.1"/>
  <text x="135" y="88.9" text-anchor="middle" class="element-text" fill="#1a3a5c" font-weight="bold" font-size="1.2">Shipsarthi</text>

  <rect x="138" y="85" width="5" height="1.8" rx="0.3" fill="#FF6F00"/>
  <text x="138.3" y="86.3" class="font-size-tag">6px</text>

  <!-- Section 5 height dimension -->
  <line x1="147" y1="82.5" x2="147" y2="90" stroke="#E53935" stroke-width="0.15"/>
  <line x1="145" y1="82.5" x2="149" y2="82.5" stroke="#E53935" stroke-width="0.15"/>
  <line x1="145" y1="90" x2="149" y2="90" stroke="#E53935" stroke-width="0.15"/>
  <text x="148" y="86.5" class="dim-text">~7.5mm</text>
  <text x="148" y="88.2" class="dim-text">(~28px)</text>

  <!-- ========== OVERALL DIMENSION ARROWS ========== -->

  <!-- Total width arrow (top) -->
  <line x1="45" y1="8.5" x2="145" y2="8.5" stroke="#E53935" stroke-width="0.2" marker-start="url(#arrow-left)" marker-end="url(#arrow-right)"/>
  <text x="95" y="8" text-anchor="middle" class="dim-text" font-size="2.2">100mm (4 inches / 378px)</text>

  <!-- Half-width arrows -->
  <line x1="45" y1="26" x2="95" y2="26" stroke="#1565C0" stroke-width="0.15" marker-start="url(#blue-left)" marker-end="url(#blue-right)"/>
  <text x="70" y="27.5" text-anchor="middle" class="dim-text-blue">50mm (1fr)</text>
  <line x1="95" y1="26" x2="145" y2="26" stroke="#1565C0" stroke-width="0.15" marker-start="url(#blue-left)" marker-end="url(#blue-right)"/>
  <text x="120" y="27.5" text-anchor="middle" class="dim-text-blue">50mm (1fr)</text>

  <!-- Total height arrow (left) -->
  <line x1="40" y1="10" x2="40" y2="90" stroke="#E53935" stroke-width="0.2"/>
  <line x1="38" y1="10" x2="42" y2="10" stroke="#E53935" stroke-width="0.2"/>
  <line x1="38" y1="90" x2="42" y2="90" stroke="#E53935" stroke-width="0.2"/>
  <line x1="40" y1="11" x2="40" y2="89" stroke="#E53935" stroke-width="0.2" marker-start="url(#arrow-up)" marker-end="url(#arrow-down)"/>
  <text x="39" y="48" text-anchor="end" class="dim-text" font-size="2" transform="rotate(-90, 39, 48)">~80mm total height (content-driven, no fixed height)</text>

  <!-- ========== LEGEND & NOTES ========== -->

  <!-- Legend box -->
  <rect x="155" y="10" width="90" height="80" rx="1" fill="white" stroke="#E0E0E0" stroke-width="0.3"/>
  <text x="200" y="13" text-anchor="middle" font-size="2.2" font-weight="bold" font-family="sans-serif" fill="#212121">SPECIFICATIONS</text>
  <line x1="157" y1="14" x2="243" y2="14" stroke="#E0E0E0" stroke-width="0.2"/>

  <!-- Container specs -->
  <text x="158" y="16.5" class="element-bold" font-size="1.6">Container (.label-container)</text>
  <text x="158" y="18.2" class="note-text">Width: 100mm (thermal/standard)</text>
  <text x="158" y="19.7" class="note-text">Height: auto (content-driven)</text>
  <text x="158" y="21.2" class="note-text">Border: 1px solid #000</text>
  <text x="158" y="22.7" class="note-text">Layout: display: flex, flex-direction: column</text>
  <text x="158" y="24.2" class="note-text">@page: size: 100mm auto; margin: 0</text>

  <line x1="157" y1="25.5" x2="243" y2="25.5" stroke="#E0E0E0" stroke-width="0.15"/>

  <!-- Grid layout -->
  <text x="158" y="27.5" class="element-bold" font-size="1.6">Grid Layout (S1, S2, S3)</text>
  <text x="158" y="29.2" class="note-text">grid-template-columns: 1fr 1fr</text>
  <text x="158" y="30.7" class="note-text">Each column: 50mm (half of 100mm)</text>
  <text x="158" y="32.2" class="note-text">Cell padding: 6px 8px (1.6mm 2.1mm)</text>

  <line x1="157" y1="33.5" x2="243" y2="33.5" stroke="#E0E0E0" stroke-width="0.15"/>

  <!-- Barcode specs -->
  <text x="158" y="35.5" class="element-bold" font-size="1.6" fill="#1565C0">Barcode Dimensions (AWB + Order)</text>
  <text x="158" y="37.2" class="note-text">Width:  47.625mm = 562.5px @300dpi</text>
  <text x="158" y="38.7" class="note-text">Height: 10.583mm = 125.0px @300dpi</text>
  <text x="158" y="40.2" class="note-text">object-fit: contain</text>
  <text x="158" y="41.7" class="note-text">Ratio: 4.5 : 1 (landscape)</text>

  <!-- Barcode visual in legend -->
  <rect x="158" y="42.5" width="30" height="6.67" fill="#f9f9f9" stroke="#333" stroke-width="0.15"/>
  <g opacity="0.4">
    <line x1="159" y1="43" x2="159" y2="48.5" stroke="#000" stroke-width="0.3"/>
    <line x1="160" y1="43" x2="160" y2="48.5" stroke="#000" stroke-width="0.5"/>
    <line x1="161.5" y1="43" x2="161.5" y2="48.5" stroke="#000" stroke-width="0.3"/>
    <line x1="163" y1="43" x2="163" y2="48.5" stroke="#000" stroke-width="0.6"/>
    <line x1="164.5" y1="43" x2="164.5" y2="48.5" stroke="#000" stroke-width="0.3"/>
    <line x1="166" y1="43" x2="166" y2="48.5" stroke="#000" stroke-width="0.5"/>
    <line x1="167.5" y1="43" x2="167.5" y2="48.5" stroke="#000" stroke-width="0.3"/>
    <line x1="169" y1="43" x2="169" y2="48.5" stroke="#000" stroke-width="0.6"/>
    <line x1="170.5" y1="43" x2="170.5" y2="48.5" stroke="#000" stroke-width="0.3"/>
    <line x1="172" y1="43" x2="172" y2="48.5" stroke="#000" stroke-width="0.5"/>
    <line x1="173.5" y1="43" x2="173.5" y2="48.5" stroke="#000" stroke-width="0.3"/>
    <line x1="175" y1="43" x2="175" y2="48.5" stroke="#000" stroke-width="0.6"/>
    <line x1="176.5" y1="43" x2="176.5" y2="48.5" stroke="#000" stroke-width="0.3"/>
    <line x1="178" y1="43" x2="178" y2="48.5" stroke="#000" stroke-width="0.5"/>
    <line x1="179.5" y1="43" x2="179.5" y2="48.5" stroke="#000" stroke-width="0.3"/>
    <line x1="181" y1="43" x2="181" y2="48.5" stroke="#000" stroke-width="0.6"/>
    <line x1="182.5" y1="43" x2="182.5" y2="48.5" stroke="#000" stroke-width="0.3"/>
    <line x1="184" y1="43" x2="184" y2="48.5" stroke="#000" stroke-width="0.5"/>
    <line x1="185.5" y1="43" x2="185.5" y2="48.5" stroke="#000" stroke-width="0.3"/>
    <line x1="187" y1="43" x2="187" y2="48.5" stroke="#000" stroke-width="0.6"/>
  </g>
  <text x="193" y="46" class="dim-text-blue" font-size="1.4">47.625 x 10.583mm</text>
  <text x="193" y="47.7" class="dim-text" font-size="1.4">562.5 x 125px</text>

  <line x1="157" y1="50.5" x2="243" y2="50.5" stroke="#E0E0E0" stroke-width="0.15"/>

  <!-- Font sizes -->
  <text x="158" y="52.5" class="element-bold" font-size="1.6">Font Size Scale</text>

  <rect x="158" y="53.5" width="3" height="2" rx="0.3" fill="#FF6F00"/>
  <text x="159.5" y="54.9" text-anchor="middle" class="font-size-tag">px</text>
  <text x="162.5" y="55" class="note-text">= font-size annotation tag</text>

  <text x="158" y="57.5" class="note-text">14px   - Payment badge (COD/PREPAID)</text>
  <text x="158" y="59" class="note-text">10px   - Brand company name</text>
  <text x="158" y="60.5" class="note-text">9px    - Ship To label + customer name</text>
  <text x="158" y="62" class="note-text">8px    - AWB, Courier, Company, Total</text>
  <text x="158" y="63.5" class="note-text">7.5px  - Address, phone, table data</text>
  <text x="158" y="65" class="note-text">7px    - GSTIN, labels, references</text>
  <text x="158" y="66.5" class="note-text">6px    - Footer branding</text>
  <text x="158" y="68" class="note-text">5.5px  - Footer disclaimers</text>

  <line x1="157" y1="69.5" x2="243" y2="69.5" stroke="#E0E0E0" stroke-width="0.15"/>

  <!-- Colors -->
  <text x="158" y="71.5" class="element-bold" font-size="1.6">Color Palette</text>

  <rect x="158" y="72.5" width="3" height="2" rx="0.3" fill="#0066cc"/>
  <text x="162.5" y="74" class="note-text">#0066cc - Blue labels, city text</text>

  <rect x="158" y="75" width="3" height="2" rx="0.3" fill="#cc0000"/>
  <text x="162.5" y="76.5" class="note-text">#cc0000 - COD badge text</text>

  <rect x="158" y="77.5" width="3" height="2" rx="0.3" fill="#1a3a5c"/>
  <text x="162.5" y="79" class="note-text">#1a3a5c - Products table header</text>

  <rect x="158" y="80" width="3" height="2" rx="0.3" fill="#f5f5f5" stroke="#ccc" stroke-width="0.1"/>
  <text x="162.5" y="81.5" class="note-text">#f5f5f5 - Footer background</text>

  <rect x="158" y="82.5" width="3" height="2" rx="0.3" fill="#FF6F00"/>
  <text x="162.5" y="84" class="note-text">Orange tags = font-size indicators</text>

  <!-- ========== SECTION HEIGHT SUMMARY (bottom) ========== -->
  <rect x="45" y="93" width="200" height="35" rx="1" fill="white" stroke="#E0E0E0" stroke-width="0.3"/>
  <text x="145" y="96" text-anchor="middle" font-size="2.2" font-weight="bold" font-family="sans-serif" fill="#212121">SECTION HEIGHT BREAKDOWN</text>
  <line x1="47" y1="97.5" x2="243" y2="97.5" stroke="#E0E0E0" stroke-width="0.2"/>

  <!-- Stacked bar chart of heights -->
  <rect x="50" y="100" width="37" height="8" fill="#1565C0" rx="0.5"/>
  <text x="68.5" y="104.5" text-anchor="middle" fill="white" font-size="1.5" font-weight="bold" font-family="sans-serif">S1: HEADER - 18.5mm (70px min)</text>

  <rect x="89" y="100" width="40" height="8" fill="#2E7D32" rx="0.5"/>
  <text x="109" y="104.5" text-anchor="middle" fill="white" font-size="1.5" font-weight="bold" font-family="sans-serif">S2: COURIER - ~20mm (60px min)</text>

  <rect x="131" y="100" width="42" height="8" fill="#E65100" rx="0.5"/>
  <text x="152" y="104.5" text-anchor="middle" fill="white" font-size="1.5" font-weight="bold" font-family="sans-serif">S3: SHIPPED BY - 21mm (80px min)</text>

  <rect x="175" y="100" width="26" height="8" fill="#6A1B9A" rx="0.5"/>
  <text x="188" y="104.5" text-anchor="middle" fill="white" font-size="1.5" font-weight="bold" font-family="sans-serif">S4: PRODUCTS ~13mm</text>

  <rect x="203" y="100" width="15" height="8" fill="#455A64" rx="0.5"/>
  <text x="210.5" y="104.5" text-anchor="middle" fill="white" font-size="1.5" font-weight="bold" font-family="sans-serif">S5 ~7.5mm</text>

  <!-- Total -->
  <line x1="50" y1="111" x2="218" y2="111" stroke="#E53935" stroke-width="0.2" marker-start="url(#arrow-left)" marker-end="url(#arrow-right)"/>
  <text x="134" y="113" text-anchor="middle" class="dim-text" font-size="2">Total: ~80mm content height (no fixed height — grows with content)</text>

  <!-- Format variants -->
  <text x="50" y="117" class="element-bold" font-size="1.6">Label Format Variants:</text>
  <text x="50" y="119" class="note-text">Thermal:  100mm x auto  |  @page: 100mm auto  |  1 label per sheet</text>
  <text x="50" y="120.8" class="note-text">Standard: 100mm x auto  |  @page: 100mm auto  |  1 label per sheet</text>
  <text x="50" y="122.6" class="note-text">2-in-1:   137mm x 200mm |  @page: A4 (210x297) |  2 labels per A4 page (flex row, gap: 3mm)</text>
  <text x="50" y="124.4" class="note-text">4-in-1:   98mm x 137mm  |  @page: A4 (210x297) |  4 labels per A4 page (2x2 grid, gap: 3mm)</text>

  <text x="50" y="127" class="css-text" font-size="1.3">File: backend/services/labelRenderer.js  |  Class: LabelRenderer  |  Method: generateLabelHTML() + combineLabels()</text>
</svg>