<svg width="300" height="944" viewBox="0 0 300 944" fill="none" xmlns="http://www.w3.org/2000/svg"><path id="Subtract" d="M300 62H109C88.5655 62 72 78.5655 72 99C72 119.115 88.0518 135.482 108.045 135.988L109 136C88.5655 136 72 152.565 72 173C72 193.115 88.0518 209.482 108.045 209.988L109 210C88.5655 210 72 226.565 72 247C72 267.115 88.0518 283.482 108.045 283.988L109 284C88.5655 284 72 300.565 72 321C72 341.115 88.0518 357.482 108.045 357.988L109 358C88.5655 358 72 374.565 72 395C72 415.115 88.0518 431.482 108.045 431.988L109 432C88.5655 432 72 448.565 72 469C72 489.115 88.0518 505.482 108.045 505.988L109 506C88.5655 506 72 522.565 72 543C72 563.115 88.0518 579.482 108.045 579.988L109 580C88.5655 580 72 596.565 72 617C72 637.115 88.0518 653.482 108.045 653.988L109 654C88.5655 654 72 670.565 72 691C72 711.115 88.0518 727.482 108.045 727.988L109 728C88.5655 728 72 744.565 72 765C72 785.115 88.0518 801.482 108.045 801.988L109 802C88.5655 802 72 818.565 72 839C72 859.435 88.5655 876 109 876H300V944H0V0H300V62Z" fill="#F68723"/></svg>
