<svg width="18" height="18" viewBox="0 0 24 24" fill="none" xmlns="http://www.w3.org/2000/svg">
<path d="M14.7 6.3C14.5168 6.48694 14.4141 6.73825 14.4141 7C14.4141 7.26175 14.5168 7.51306 14.7 7.7L16.3 9.3C16.4869 9.48322 16.7383 9.58586 17 9.58586C17.2617 9.58586 17.5131 9.48322 17.7 9.3L21.47 5.53C21.97 6.62 22.12 7.84 21.9 9C21.68 10.16 21.11 11.23 20.27 12.07C19.43 12.91 18.36 13.48 17.2 13.7C16.04 13.92 14.82 13.77 13.73 13.27L6.71 20.29C6.35 20.65 5.86 20.85 5.35 20.85C4.84 20.85 4.35 20.65 3.99 20.29C3.63 19.93 3.43 19.44 3.43 18.93C3.43 18.42 3.63 17.93 3.99 17.57L11 10.54C10.5 9.45 10.35 8.23 10.57 7.07C10.79 5.91 11.36 4.84 12.2 4C13.04 3.16 14.11 2.59 15.27 2.37C16.43 2.15 17.65 2.3 18.74 2.8L14.7 6.3Z" stroke="white" stroke-width="1.5" stroke-linecap="round" stroke-linejoin="round"/>
</svg>
